{"asset":{"generator":"Khronos glTF Blender I/O v4.4.56","version":"2.0"},"scene":0,"scenes":[{"nodes":[0,1,2]}],"nodes":[{"mesh":0},{"mesh":1},{"mesh":2}],"materials":[{"doubleSided":true,"alphaMode":"MASK","alphaCutoff":0.45,"normalTexture":{"index":0},"pbrMetallicRoughness":{"baseColorTexture":{"index":1},"metallicFactor":0,"roughnessFactor":0.9}}],"meshes":[{"primitives":[{"attributes":{"POSITION":0,"NORMAL":1,"TEXCOORD_0":2},"indices":3,"material":0}]},{"primitives":[{"attributes":{"POSITION":4,"NORMAL":5,"TEXCOORD_0":6},"indices":7,"material":0}]},{"primitives":[{"attributes":{"POSITION":8,"NORMAL":9,"TEXCOORD_0":10},"indices":11,"material":0}]}],"textures":[{"sampler":0,"source":0},{"sampler":0,"source":1}],"images":[{"uri":"normal.webp","mimeType":"image/webp"},{"uri":"leaves.webp","mimeType":"image/webp"}],"accessors":[{"bufferView":0,"componentType":5126,"count":240,"type":"VEC3","min":[-0.07992804050445557,-0.0024811276234686375,-0.08258192986249924],"max":[0.10491206496953964,0.13794554769992828,0.07973111420869827]},{"bufferView":1,"componentType":5126,"count":240,"type":"VEC3"},{"bufferView":2,"componentType":5126,"count":240,"type":"VEC2"},{"bufferView":3,"componentType":5125,"count":540,"type":"SCALAR"},{"bufferView":4,"componentType":5126,"count":212,"type":"VEC3","min":[-0.09215594828128815,-0.007656285539269447,-0.09784233570098877],"max":[0.07380075007677078,0.09223899245262146,0.09204978495836258]},{"bufferView":5,"componentType":5126,"count":212,"type":"VEC3"},{"bufferView":6,"componentType":5126,"count":212,"type":"VEC2"},{"bufferView":7,"componentType":5125,"count":480,"type":"SCALAR"},{"bufferView":8,"componentType":5126,"count":414,"type":"VEC3","min":[-0.11184881627559662,-0.02293974906206131,-0.1123582273721695],"max":[0.10376648604869843,0.19480454921722412,0.10901965200901031]},{"bufferView":9,"componentType":5126,"count":414,"type":"VEC3"},{"bufferView":10,"componentType":5126,"count":414,"type":"VEC2"},{"bufferView":11,"componentType":5125,"count":720,"type":"SCALAR"}],"bufferViews":[{"buffer":0,"byteOffset":0,"byteLength":2880,"target":34962},{"buffer":0,"byteOffset":2880,"byteLength":2880,"target":34962},{"buffer":0,"byteOffset":5760,"byteLength":1920,"target":34962},{"buffer":0,"byteOffset":7680,"byteLength":2160,"target":34963},{"buffer":0,"byteOffset":9840,"byteLength":2544,"target":34962},{"buffer":0,"byteOffset":12384,"byteLength":2544,"target":34962},{"buffer":0,"byteOffset":14928,"byteLength":1696,"target":34962},{"buffer":0,"byteOffset":16624,"byteLength":1920,"target":34963},{"buffer":0,"byteOffset":18544,"byteLength":4968,"target":34962},{"buffer":0,"byteOffset":23512,"byteLength":4968,"target":34962},{"buffer":0,"byteOffset":28480,"byteLength":3312,"target":34962},{"buffer":0,"byteOffset":31792,"byteLength":2880,"target":34963}],"samplers":[{"magFilter":9729,"minFilter":9987}],"buffers":[{"byteLength":34672,"uri":"lod.bin"}]}