{"asset":{"version":"2.0","generator":"Memory Palace / static MIT Rocketbox pose bake"},"scene":0,"scenes":[{"nodes":[0]}],"nodes":[{"mesh":0}],"meshes":[{"primitives":[{"attributes":{"POSITION":0,"NORMAL":1,"TEXCOORD_0":2},"indices":3,"material":0},{"attributes":{"POSITION":0,"NORMAL":1,"TEXCOORD_0":2},"indices":4,"material":1},{"attributes":{"POSITION":0,"NORMAL":1,"TEXCOORD_0":2},"indices":5,"material":2},{"attributes":{"POSITION":0,"NORMAL":1,"TEXCOORD_0":2},"indices":6,"material":3},{"attributes":{"POSITION":0,"NORMAL":1,"TEXCOORD_0":2},"indices":7,"material":4},{"attributes":{"POSITION":0,"NORMAL":1,"TEXCOORD_0":2},"indices":8,"material":5},{"attributes":{"POSITION":0,"NORMAL":1,"TEXCOORD_0":2},"indices":9,"material":6}]}],"materials":[{"name":"m014_body","doubleSided":false,"pbrMetallicRoughness":{"baseColorTexture":{"index":0},"metallicFactor":0,"roughnessFactor":0.87}},{"name":"m014_head","doubleSided":false,"pbrMetallicRoughness":{"baseColorTexture":{"index":1},"metallicFactor":0,"roughnessFactor":0.87}},{"name":"m014_body","doubleSided":false,"pbrMetallicRoughness":{"baseColorTexture":{"index":2},"metallicFactor":0,"roughnessFactor":0.87}},{"name":"m014_head","doubleSided":false,"pbrMetallicRoughness":{"baseColorTexture":{"index":3},"metallicFactor":0,"roughnessFactor":0.87}},{"name":"m014_body","doubleSided":false,"pbrMetallicRoughness":{"baseColorTexture":{"index":4},"metallicFactor":0,"roughnessFactor":0.87}},{"name":"m014_head","doubleSided":false,"pbrMetallicRoughness":{"baseColorTexture":{"index":5},"metallicFactor":0,"roughnessFactor":0.87}},{"name":"m014_opacity","doubleSided":true,"alphaMode":"MASK","alphaCutoff":0.4,"pbrMetallicRoughness":{"baseColorTexture":{"index":6},"metallicFactor":0,"roughnessFactor":0.87}}],"images":[{"uri":"m014_body_color.webp"},{"uri":"m014_head_color.webp"},{"uri":"m014_body_color.webp"},{"uri":"m014_head_color.webp"},{"uri":"m014_body_color.webp"},{"uri":"m014_head_color.webp"},{"uri":"m014_opacity_color.webp"}],"textures":[{"source":0},{"source":1},{"source":2},{"source":3},{"source":4},{"source":5},{"source":6}],"accessors":[{"bufferView":0,"componentType":5126,"count":22092,"type":"VEC3","min":[-0.2966192364692688,-1.2036016627803292e-10,-0.1873656064271927],"max":[0.2966192364692688,1.7999999523162842,0.1873656064271927]},{"bufferView":1,"componentType":5126,"count":22092,"type":"VEC3","min":[-0.9999269843101501,-0.9999755620956421,-0.9998700022697449],"max":[0.9999585747718811,0.9993888735771179,0.9999886751174927]},{"bufferView":2,"componentType":5126,"count":22092,"type":"VEC2"},{"bufferView":3,"componentType":5125,"count":5550,"type":"SCALAR"},{"bufferView":4,"componentType":5125,"count":3390,"type":"SCALAR"},{"bufferView":5,"componentType":5125,"count":6273,"type":"SCALAR"},{"bufferView":6,"componentType":5125,"count":5487,"type":"SCALAR"},{"bufferView":7,"componentType":5125,"count":243,"type":"SCALAR"},{"bufferView":8,"componentType":5125,"count":243,"type":"SCALAR"},{"bufferView":9,"componentType":5125,"count":906,"type":"SCALAR"}],"bufferViews":[{"buffer":0,"byteOffset":0,"byteLength":265104},{"buffer":0,"byteOffset":265104,"byteLength":265104},{"buffer":0,"byteOffset":530208,"byteLength":176736},{"buffer":0,"byteOffset":706944,"byteLength":22200},{"buffer":0,"byteOffset":729144,"byteLength":13560},{"buffer":0,"byteOffset":742704,"byteLength":25092},{"buffer":0,"byteOffset":767796,"byteLength":21948},{"buffer":0,"byteOffset":789744,"byteLength":972},{"buffer":0,"byteOffset":790716,"byteLength":972},{"buffer":0,"byteOffset":791688,"byteLength":3624}],"buffers":[{"uri":"pose.bin","byteLength":795312}]}