{"asset":{"version":"2.0","generator":"Memory Palace / static MIT Rocketbox pose bake"},"scene":0,"scenes":[{"nodes":[0]}],"nodes":[{"mesh":0}],"meshes":[{"primitives":[{"attributes":{"POSITION":0,"NORMAL":1,"TEXCOORD_0":2},"indices":3,"material":0},{"attributes":{"POSITION":0,"NORMAL":1,"TEXCOORD_0":2},"indices":4,"material":1},{"attributes":{"POSITION":0,"NORMAL":1,"TEXCOORD_0":2},"indices":5,"material":2},{"attributes":{"POSITION":0,"NORMAL":1,"TEXCOORD_0":2},"indices":6,"material":3},{"attributes":{"POSITION":0,"NORMAL":1,"TEXCOORD_0":2},"indices":7,"material":4},{"attributes":{"POSITION":0,"NORMAL":1,"TEXCOORD_0":2},"indices":8,"material":5},{"attributes":{"POSITION":0,"NORMAL":1,"TEXCOORD_0":2},"indices":9,"material":6}]}],"materials":[{"name":"f008_body","doubleSided":false,"pbrMetallicRoughness":{"baseColorTexture":{"index":0},"metallicFactor":0,"roughnessFactor":0.87}},{"name":"f008_head","doubleSided":false,"pbrMetallicRoughness":{"baseColorTexture":{"index":1},"metallicFactor":0,"roughnessFactor":0.87}},{"name":"f008_body","doubleSided":false,"pbrMetallicRoughness":{"baseColorTexture":{"index":2},"metallicFactor":0,"roughnessFactor":0.87}},{"name":"f008_opacity","doubleSided":true,"alphaMode":"MASK","alphaCutoff":0.4,"pbrMetallicRoughness":{"baseColorTexture":{"index":3},"metallicFactor":0,"roughnessFactor":0.87}},{"name":"f008_head","doubleSided":false,"pbrMetallicRoughness":{"baseColorTexture":{"index":4},"metallicFactor":0,"roughnessFactor":0.87}},{"name":"f008_body","doubleSided":false,"pbrMetallicRoughness":{"baseColorTexture":{"index":5},"metallicFactor":0,"roughnessFactor":0.87}},{"name":"f008_opacity","doubleSided":true,"alphaMode":"MASK","alphaCutoff":0.4,"pbrMetallicRoughness":{"baseColorTexture":{"index":6},"metallicFactor":0,"roughnessFactor":0.87}}],"images":[{"uri":"f008_body_color.webp"},{"uri":"f008_head_color.webp"},{"uri":"f008_body_color.webp"},{"uri":"f008_opacity_color.webp"},{"uri":"f008_head_color.webp"},{"uri":"f008_body_color.webp"},{"uri":"f008_opacity_color.webp"}],"textures":[{"source":0},{"source":1},{"source":2},{"source":3},{"source":4},{"source":5},{"source":6}],"accessors":[{"bufferView":0,"componentType":5126,"count":24828,"type":"VEC3","min":[-0.22575978934764862,1.3244712618321053e-11,-0.1775074601173401],"max":[0.22575980424880981,1.6800000667572021,0.1775074452161789]},{"bufferView":1,"componentType":5126,"count":24828,"type":"VEC3","min":[-0.9999363422393799,-0.9999403953552246,-0.9996984004974365],"max":[0.9999308586120605,0.999954342842102,0.9998081922531128]},{"bufferView":2,"componentType":5126,"count":24828,"type":"VEC2"},{"bufferView":3,"componentType":5125,"count":11979,"type":"SCALAR"},{"bufferView":4,"componentType":5125,"count":9504,"type":"SCALAR"},{"bufferView":5,"componentType":5125,"count":363,"type":"SCALAR"},{"bufferView":6,"componentType":5125,"count":2238,"type":"SCALAR"},{"bufferView":7,"componentType":5125,"count":252,"type":"SCALAR"},{"bufferView":8,"componentType":5125,"count":420,"type":"SCALAR"},{"bufferView":9,"componentType":5125,"count":72,"type":"SCALAR"}],"bufferViews":[{"buffer":0,"byteOffset":0,"byteLength":297936},{"buffer":0,"byteOffset":297936,"byteLength":297936},{"buffer":0,"byteOffset":595872,"byteLength":198624},{"buffer":0,"byteOffset":794496,"byteLength":47916},{"buffer":0,"byteOffset":842412,"byteLength":38016},{"buffer":0,"byteOffset":880428,"byteLength":1452},{"buffer":0,"byteOffset":881880,"byteLength":8952},{"buffer":0,"byteOffset":890832,"byteLength":1008},{"buffer":0,"byteOffset":891840,"byteLength":1680},{"buffer":0,"byteOffset":893520,"byteLength":288}],"buffers":[{"uri":"pose.bin","byteLength":893808}]}