{"asset":{"version":"2.0","generator":"Memory Palace / static MIT Rocketbox pose bake"},"scene":0,"scenes":[{"nodes":[0]}],"nodes":[{"mesh":0}],"meshes":[{"primitives":[{"attributes":{"POSITION":0,"NORMAL":1,"TEXCOORD_0":2},"indices":3,"material":0},{"attributes":{"POSITION":0,"NORMAL":1,"TEXCOORD_0":2},"indices":4,"material":1},{"attributes":{"POSITION":0,"NORMAL":1,"TEXCOORD_0":2},"indices":5,"material":2},{"attributes":{"POSITION":0,"NORMAL":1,"TEXCOORD_0":2},"indices":6,"material":3},{"attributes":{"POSITION":0,"NORMAL":1,"TEXCOORD_0":2},"indices":7,"material":4},{"attributes":{"POSITION":0,"NORMAL":1,"TEXCOORD_0":2},"indices":8,"material":5},{"attributes":{"POSITION":0,"NORMAL":1,"TEXCOORD_0":2},"indices":9,"material":6},{"attributes":{"POSITION":0,"NORMAL":1,"TEXCOORD_0":2},"indices":10,"material":7}]}],"materials":[{"name":"f005_body","doubleSided":false,"pbrMetallicRoughness":{"baseColorTexture":{"index":0},"metallicFactor":0,"roughnessFactor":0.87}},{"name":"f005_head","doubleSided":false,"pbrMetallicRoughness":{"baseColorTexture":{"index":1},"metallicFactor":0,"roughnessFactor":0.87}},{"name":"f005_body","doubleSided":false,"pbrMetallicRoughness":{"baseColorTexture":{"index":2},"metallicFactor":0,"roughnessFactor":0.87}},{"name":"f005_opacity","doubleSided":true,"alphaMode":"MASK","alphaCutoff":0.4,"pbrMetallicRoughness":{"baseColorTexture":{"index":3},"metallicFactor":0,"roughnessFactor":0.87}},{"name":"f005_head","doubleSided":false,"pbrMetallicRoughness":{"baseColorTexture":{"index":4},"metallicFactor":0,"roughnessFactor":0.87}},{"name":"f005_body","doubleSided":false,"pbrMetallicRoughness":{"baseColorTexture":{"index":5},"metallicFactor":0,"roughnessFactor":0.87}},{"name":"f005_head","doubleSided":false,"pbrMetallicRoughness":{"baseColorTexture":{"index":6},"metallicFactor":0,"roughnessFactor":0.87}},{"name":"f005_opacity","doubleSided":true,"alphaMode":"MASK","alphaCutoff":0.4,"pbrMetallicRoughness":{"baseColorTexture":{"index":7},"metallicFactor":0,"roughnessFactor":0.87}}],"images":[{"uri":"f005_body_color.webp"},{"uri":"f005_head_color.webp"},{"uri":"f005_body_color.webp"},{"uri":"f005_opacity_color.webp"},{"uri":"f005_head_color.webp"},{"uri":"f005_body_color.webp"},{"uri":"f005_head_color.webp"},{"uri":"f005_opacity_color.webp"}],"textures":[{"source":0},{"source":1},{"source":2},{"source":3},{"source":4},{"source":5},{"source":6},{"source":7}],"accessors":[{"bufferView":0,"componentType":5126,"count":24864,"type":"VEC3","min":[-0.23282724618911743,-1.5474042186491843e-11,-0.1528795212507248],"max":[0.23282724618911743,1.6799999475479126,0.1528795212507248]},{"bufferView":1,"componentType":5126,"count":24864,"type":"VEC3","min":[-0.9999610781669617,-0.9999595880508423,-0.9994088411331177],"max":[0.9999790787696838,0.9998896718025208,0.9998713731765747]},{"bufferView":2,"componentType":5126,"count":24864,"type":"VEC2"},{"bufferView":3,"componentType":5125,"count":13677,"type":"SCALAR"},{"bufferView":4,"componentType":5125,"count":7935,"type":"SCALAR"},{"bufferView":5,"componentType":5125,"count":201,"type":"SCALAR"},{"bufferView":6,"componentType":5125,"count":624,"type":"SCALAR"},{"bufferView":7,"componentType":5125,"count":252,"type":"SCALAR"},{"bufferView":8,"componentType":5125,"count":24,"type":"SCALAR"},{"bufferView":9,"componentType":5125,"count":15,"type":"SCALAR"},{"bufferView":10,"componentType":5125,"count":2136,"type":"SCALAR"}],"bufferViews":[{"buffer":0,"byteOffset":0,"byteLength":298368},{"buffer":0,"byteOffset":298368,"byteLength":298368},{"buffer":0,"byteOffset":596736,"byteLength":198912},{"buffer":0,"byteOffset":795648,"byteLength":54708},{"buffer":0,"byteOffset":850356,"byteLength":31740},{"buffer":0,"byteOffset":882096,"byteLength":804},{"buffer":0,"byteOffset":882900,"byteLength":2496},{"buffer":0,"byteOffset":885396,"byteLength":1008},{"buffer":0,"byteOffset":886404,"byteLength":96},{"buffer":0,"byteOffset":886500,"byteLength":60},{"buffer":0,"byteOffset":886560,"byteLength":8544}],"buffers":[{"uri":"pose.bin","byteLength":895104}]}