{"asset":{"version":"2.0","generator":"Memory Palace / static MIT Rocketbox pose bake"},"scene":0,"scenes":[{"nodes":[0]}],"nodes":[{"mesh":0}],"meshes":[{"primitives":[{"attributes":{"POSITION":0,"NORMAL":1,"TEXCOORD_0":2},"indices":3,"material":0},{"attributes":{"POSITION":0,"NORMAL":1,"TEXCOORD_0":2},"indices":4,"material":1},{"attributes":{"POSITION":0,"NORMAL":1,"TEXCOORD_0":2},"indices":5,"material":2},{"attributes":{"POSITION":0,"NORMAL":1,"TEXCOORD_0":2},"indices":6,"material":3},{"attributes":{"POSITION":0,"NORMAL":1,"TEXCOORD_0":2},"indices":7,"material":4},{"attributes":{"POSITION":0,"NORMAL":1,"TEXCOORD_0":2},"indices":8,"material":5},{"attributes":{"POSITION":0,"NORMAL":1,"TEXCOORD_0":2},"indices":9,"material":6}]}],"materials":[{"name":"m007_body","doubleSided":false,"pbrMetallicRoughness":{"baseColorTexture":{"index":0},"metallicFactor":0,"roughnessFactor":0.87}},{"name":"m007_head","doubleSided":false,"pbrMetallicRoughness":{"baseColorTexture":{"index":1},"metallicFactor":0,"roughnessFactor":0.87}},{"name":"m007_body","doubleSided":false,"pbrMetallicRoughness":{"baseColorTexture":{"index":2},"metallicFactor":0,"roughnessFactor":0.87}},{"name":"m007_head","doubleSided":false,"pbrMetallicRoughness":{"baseColorTexture":{"index":3},"metallicFactor":0,"roughnessFactor":0.87}},{"name":"m007_body","doubleSided":false,"pbrMetallicRoughness":{"baseColorTexture":{"index":4},"metallicFactor":0,"roughnessFactor":0.87}},{"name":"m007_head","doubleSided":false,"pbrMetallicRoughness":{"baseColorTexture":{"index":5},"metallicFactor":0,"roughnessFactor":0.87}},{"name":"m007_body","doubleSided":false,"pbrMetallicRoughness":{"baseColorTexture":{"index":6},"metallicFactor":0,"roughnessFactor":0.87}}],"images":[{"uri":"m007_body_color.webp"},{"uri":"m007_head_color.webp"},{"uri":"m007_body_color.webp"},{"uri":"m007_head_color.webp"},{"uri":"m007_body_color.webp"},{"uri":"m007_head_color.webp"},{"uri":"m007_body_color.webp"}],"textures":[{"source":0},{"source":1},{"source":2},{"source":3},{"source":4},{"source":5},{"source":6}],"accessors":[{"bufferView":0,"componentType":5126,"count":20166,"type":"VEC3","min":[-0.30450478196144104,5.073384420906102e-11,-0.20191264152526855],"max":[0.30450478196144104,1.7999999523162842,0.20191264152526855]},{"bufferView":1,"componentType":5126,"count":20166,"type":"VEC3","min":[-0.9998737573623657,-0.9999833106994629,-0.9995840787887573],"max":[0.9998278021812439,0.9995987415313721,0.9999567866325378]},{"bufferView":2,"componentType":5126,"count":20166,"type":"VEC2"},{"bufferView":3,"componentType":5125,"count":10431,"type":"SCALAR"},{"bufferView":4,"componentType":5125,"count":3342,"type":"SCALAR"},{"bufferView":5,"componentType":5125,"count":24,"type":"SCALAR"},{"bufferView":6,"componentType":5125,"count":5475,"type":"SCALAR"},{"bufferView":7,"componentType":5125,"count":597,"type":"SCALAR"},{"bufferView":8,"componentType":5125,"count":267,"type":"SCALAR"},{"bufferView":9,"componentType":5125,"count":30,"type":"SCALAR"}],"bufferViews":[{"buffer":0,"byteOffset":0,"byteLength":241992},{"buffer":0,"byteOffset":241992,"byteLength":241992},{"buffer":0,"byteOffset":483984,"byteLength":161328},{"buffer":0,"byteOffset":645312,"byteLength":41724},{"buffer":0,"byteOffset":687036,"byteLength":13368},{"buffer":0,"byteOffset":700404,"byteLength":96},{"buffer":0,"byteOffset":700500,"byteLength":21900},{"buffer":0,"byteOffset":722400,"byteLength":2388},{"buffer":0,"byteOffset":724788,"byteLength":1068},{"buffer":0,"byteOffset":725856,"byteLength":120}],"buffers":[{"uri":"pose.bin","byteLength":725976}]}