{"asset":{"version":"2.0","generator":"Memory Palace / static MIT Rocketbox pose bake"},"scene":0,"scenes":[{"nodes":[0]}],"nodes":[{"mesh":0}],"meshes":[{"primitives":[{"attributes":{"POSITION":0,"NORMAL":1,"TEXCOORD_0":2},"indices":3,"material":0},{"attributes":{"POSITION":0,"NORMAL":1,"TEXCOORD_0":2},"indices":4,"material":1},{"attributes":{"POSITION":0,"NORMAL":1,"TEXCOORD_0":2},"indices":5,"material":2},{"attributes":{"POSITION":0,"NORMAL":1,"TEXCOORD_0":2},"indices":6,"material":3},{"attributes":{"POSITION":0,"NORMAL":1,"TEXCOORD_0":2},"indices":7,"material":4},{"attributes":{"POSITION":0,"NORMAL":1,"TEXCOORD_0":2},"indices":8,"material":5},{"attributes":{"POSITION":0,"NORMAL":1,"TEXCOORD_0":2},"indices":9,"material":6},{"attributes":{"POSITION":0,"NORMAL":1,"TEXCOORD_0":2},"indices":10,"material":7},{"attributes":{"POSITION":0,"NORMAL":1,"TEXCOORD_0":2},"indices":11,"material":8},{"attributes":{"POSITION":0,"NORMAL":1,"TEXCOORD_0":2},"indices":12,"material":9}]}],"materials":[{"name":"m250_body","doubleSided":false,"pbrMetallicRoughness":{"baseColorTexture":{"index":0},"metallicFactor":0,"roughnessFactor":0.87}},{"name":"m250_head","doubleSided":false,"pbrMetallicRoughness":{"baseColorTexture":{"index":1},"metallicFactor":0,"roughnessFactor":0.87}},{"name":"m250_body","doubleSided":false,"pbrMetallicRoughness":{"baseColorTexture":{"index":2},"metallicFactor":0,"roughnessFactor":0.87}},{"name":"m250_keffiyeh","doubleSided":false,"pbrMetallicRoughness":{"baseColorTexture":{"index":3},"metallicFactor":0,"roughnessFactor":0.87}},{"name":"m250_body","doubleSided":false,"pbrMetallicRoughness":{"baseColorTexture":{"index":4},"metallicFactor":0,"roughnessFactor":0.87}},{"name":"m250_keffiyeh","doubleSided":false,"pbrMetallicRoughness":{"baseColorTexture":{"index":5},"metallicFactor":0,"roughnessFactor":0.87}},{"name":"m250_head","doubleSided":false,"pbrMetallicRoughness":{"baseColorTexture":{"index":6},"metallicFactor":0,"roughnessFactor":0.87}},{"name":"m250_body","doubleSided":false,"pbrMetallicRoughness":{"baseColorTexture":{"index":7},"metallicFactor":0,"roughnessFactor":0.87}},{"name":"m250_head","doubleSided":false,"pbrMetallicRoughness":{"baseColorTexture":{"index":8},"metallicFactor":0,"roughnessFactor":0.87}},{"name":"m250_body","doubleSided":false,"pbrMetallicRoughness":{"baseColorTexture":{"index":9},"metallicFactor":0,"roughnessFactor":0.87}}],"images":[{"uri":"m250_body_color.webp"},{"uri":"m250_head_color.webp"},{"uri":"m250_body_color.webp"},{"uri":"m250_keffiyeh_color.webp"},{"uri":"m250_body_color.webp"},{"uri":"m250_keffiyeh_color.webp"},{"uri":"m250_head_color.webp"},{"uri":"m250_body_color.webp"},{"uri":"m250_head_color.webp"},{"uri":"m250_body_color.webp"}],"textures":[{"source":0},{"source":1},{"source":2},{"source":3},{"source":4},{"source":5},{"source":6},{"source":7},{"source":8},{"source":9}],"accessors":[{"bufferView":0,"componentType":5126,"count":20196,"type":"VEC3","min":[-0.3067080080509186,-1.1871754967973658e-10,-0.2288929969072342],"max":[0.3067080080509186,1.8000000715255737,0.22889301180839539]},{"bufferView":1,"componentType":5126,"count":20196,"type":"VEC3","min":[-0.9995701313018799,-0.9999806880950928,-0.999958336353302],"max":[0.9999690055847168,1,0.9999403357505798]},{"bufferView":2,"componentType":5126,"count":20196,"type":"VEC2"},{"bufferView":3,"componentType":5125,"count":10287,"type":"SCALAR"},{"bufferView":4,"componentType":5125,"count":150,"type":"SCALAR"},{"bufferView":5,"componentType":5125,"count":24,"type":"SCALAR"},{"bufferView":6,"componentType":5125,"count":3834,"type":"SCALAR"},{"bufferView":7,"componentType":5125,"count":6,"type":"SCALAR"},{"bufferView":8,"componentType":5125,"count":15,"type":"SCALAR"},{"bufferView":9,"componentType":5125,"count":5487,"type":"SCALAR"},{"bufferView":10,"componentType":5125,"count":18,"type":"SCALAR"},{"bufferView":11,"componentType":5125,"count":255,"type":"SCALAR"},{"bufferView":12,"componentType":5125,"count":120,"type":"SCALAR"}],"bufferViews":[{"buffer":0,"byteOffset":0,"byteLength":242352},{"buffer":0,"byteOffset":242352,"byteLength":242352},{"buffer":0,"byteOffset":484704,"byteLength":161568},{"buffer":0,"byteOffset":646272,"byteLength":41148},{"buffer":0,"byteOffset":687420,"byteLength":600},{"buffer":0,"byteOffset":688020,"byteLength":96},{"buffer":0,"byteOffset":688116,"byteLength":15336},{"buffer":0,"byteOffset":703452,"byteLength":24},{"buffer":0,"byteOffset":703476,"byteLength":60},{"buffer":0,"byteOffset":703536,"byteLength":21948},{"buffer":0,"byteOffset":725484,"byteLength":72},{"buffer":0,"byteOffset":725556,"byteLength":1020},{"buffer":0,"byteOffset":726576,"byteLength":480}],"buffers":[{"uri":"pose.bin","byteLength":727056}]}