{"asset":{"version":"2.0","generator":"Memory Palace / static MIT Rocketbox pose bake"},"scene":0,"scenes":[{"nodes":[0]}],"nodes":[{"mesh":0}],"meshes":[{"primitives":[{"attributes":{"POSITION":0,"NORMAL":1,"TEXCOORD_0":2},"indices":3,"material":0},{"attributes":{"POSITION":0,"NORMAL":1,"TEXCOORD_0":2},"indices":4,"material":1},{"attributes":{"POSITION":0,"NORMAL":1,"TEXCOORD_0":2},"indices":5,"material":2},{"attributes":{"POSITION":0,"NORMAL":1,"TEXCOORD_0":2},"indices":6,"material":3},{"attributes":{"POSITION":0,"NORMAL":1,"TEXCOORD_0":2},"indices":7,"material":4},{"attributes":{"POSITION":0,"NORMAL":1,"TEXCOORD_0":2},"indices":8,"material":5},{"attributes":{"POSITION":0,"NORMAL":1,"TEXCOORD_0":2},"indices":9,"material":6},{"attributes":{"POSITION":0,"NORMAL":1,"TEXCOORD_0":2},"indices":10,"material":7},{"attributes":{"POSITION":0,"NORMAL":1,"TEXCOORD_0":2},"indices":11,"material":8}]}],"materials":[{"name":"m004_body","doubleSided":false,"pbrMetallicRoughness":{"baseColorTexture":{"index":0},"metallicFactor":0,"roughnessFactor":0.87}},{"name":"m004_head","doubleSided":false,"pbrMetallicRoughness":{"baseColorTexture":{"index":1},"metallicFactor":0,"roughnessFactor":0.87}},{"name":"m004_body","doubleSided":false,"pbrMetallicRoughness":{"baseColorTexture":{"index":2},"metallicFactor":0,"roughnessFactor":0.87}},{"name":"m004_head","doubleSided":false,"pbrMetallicRoughness":{"baseColorTexture":{"index":3},"metallicFactor":0,"roughnessFactor":0.87}},{"name":"m004_body","doubleSided":false,"pbrMetallicRoughness":{"baseColorTexture":{"index":4},"metallicFactor":0,"roughnessFactor":0.87}},{"name":"m004_opacity","doubleSided":true,"alphaMode":"MASK","alphaCutoff":0.4,"pbrMetallicRoughness":{"baseColorTexture":{"index":5},"metallicFactor":0,"roughnessFactor":0.87}},{"name":"m004_head","doubleSided":false,"pbrMetallicRoughness":{"baseColorTexture":{"index":6},"metallicFactor":0,"roughnessFactor":0.87}},{"name":"m004_body","doubleSided":false,"pbrMetallicRoughness":{"baseColorTexture":{"index":7},"metallicFactor":0,"roughnessFactor":0.87}},{"name":"m004_head","doubleSided":false,"pbrMetallicRoughness":{"baseColorTexture":{"index":8},"metallicFactor":0,"roughnessFactor":0.87}}],"images":[{"uri":"m004_body_color.webp"},{"uri":"m004_head_color.webp"},{"uri":"m004_body_color.webp"},{"uri":"m004_head_color.webp"},{"uri":"m004_body_color.webp"},{"uri":"m004_opacity_color.webp"},{"uri":"m004_head_color.webp"},{"uri":"m004_body_color.webp"},{"uri":"m004_head_color.webp"}],"textures":[{"source":0},{"source":1},{"source":2},{"source":3},{"source":4},{"source":5},{"source":6},{"source":7},{"source":8}],"accessors":[{"bufferView":0,"componentType":5126,"count":21600,"type":"VEC3","min":[-0.31232669949531555,1.4276826942882792e-10,-0.18952779471874237],"max":[0.31232672929763794,1.7999999523162842,0.18952779471874237]},{"bufferView":1,"componentType":5126,"count":21600,"type":"VEC3","min":[-0.9995400309562683,-0.9999756813049316,-0.9996656179428101],"max":[0.9998431205749512,0.9996238946914673,0.9998247027397156]},{"bufferView":2,"componentType":5126,"count":21600,"type":"VEC2"},{"bufferView":3,"componentType":5125,"count":6555,"type":"SCALAR"},{"bufferView":4,"componentType":5125,"count":3627,"type":"SCALAR"},{"bufferView":5,"componentType":5125,"count":4812,"type":"SCALAR"},{"bufferView":6,"componentType":5125,"count":5478,"type":"SCALAR"},{"bufferView":7,"componentType":5125,"count":228,"type":"SCALAR"},{"bufferView":8,"componentType":5125,"count":618,"type":"SCALAR"},{"bufferView":9,"componentType":5125,"count":252,"type":"SCALAR"},{"bufferView":10,"componentType":5125,"count":27,"type":"SCALAR"},{"bufferView":11,"componentType":5125,"count":3,"type":"SCALAR"}],"bufferViews":[{"buffer":0,"byteOffset":0,"byteLength":259200},{"buffer":0,"byteOffset":259200,"byteLength":259200},{"buffer":0,"byteOffset":518400,"byteLength":172800},{"buffer":0,"byteOffset":691200,"byteLength":26220},{"buffer":0,"byteOffset":717420,"byteLength":14508},{"buffer":0,"byteOffset":731928,"byteLength":19248},{"buffer":0,"byteOffset":751176,"byteLength":21912},{"buffer":0,"byteOffset":773088,"byteLength":912},{"buffer":0,"byteOffset":774000,"byteLength":2472},{"buffer":0,"byteOffset":776472,"byteLength":1008},{"buffer":0,"byteOffset":777480,"byteLength":108},{"buffer":0,"byteOffset":777588,"byteLength":12}],"buffers":[{"uri":"pose.bin","byteLength":777600}]}